<?xml version="1.0" encoding="UTF-8"?><svg id="a" xmlns="http://www.w3.org/2000/svg" viewBox="0 0 1020 597.34"><defs><style>.b{fill:#2e95f3;}.c{fill:#f6fbff;}.d{fill:#1c75bc;}</style></defs><path class="d" d="M640.74,254.21c40.27-55.78,100.69-125.83,125.01-131.83,47.92-11.83,96.53,17.53,108.36,65.46,11.83,47.92-17.53,96.52-65.46,108.35-11.77,2.9-33.02-1.06-58.73-9.34,51.58,24.27,101.09,39.79,145.2,47.13,14.53,2.48,28.34,4,41.46,4.95,40.66-46.99,58.75-112.3,42.76-177.07-26.15-105.95-133.62-170.88-239.57-144.73-44.66,11.02-93.53,51.21-149.39,122.84-9.92,12.72-33.06,44.67-41.24,56.22.5.27,1,.53,1.5.82"/><path class="d" d="M506.73,287.29c-61.59-30.63-147.67-64.52-172-58.52-47.92,11.83-77.28,60.43-65.45,108.36,11.83,47.92,60.44,77.28,108.36,65.45,11.77-2.91,28.73-16.31,47.64-35.6-34.35,45.49-70.96,82.26-106.59,109.28-11.71,8.95-23.23,16.73-34.39,23.67-57.85-22.67-104.27-72.06-120.25-136.83-26.15-105.95,38.77-213.43,144.71-239.58,44.67-11.03,106.63,1.8,189.4,39.22,14.7,6.64,50.05,24.15,62.66,30.57-.31.47-.64.94-.94,1.42"/><path class="b" d="M248.01,191.06c44.11,7.32,94.09,24.6,145.67,48.89,30.25,9.75,66.38,24.77,101.17,42.61l94.46,52.11.03.12c16.05,8.47,35.25,18.1,55.9,27.43,82.77,37.41,144.73,50.24,189.39,39.22,41.17-10.16,76.1-32.64,101.95-62.5-13.11-.95-26.93-2.48-41.46-4.95-44.11-7.33-93.63-22.85-145.2-47.13-30.25-9.75-66.71-25.48-101.49-43.31l-94.61-53.18-.03-.11c-16.06-8.47-35.25-18.11-55.91-27.44-82.77-37.41-144.73-50.23-189.39-39.21-41.17,10.16-76.1,32.64-101.95,62.5,13.11.94,26.93,2.46,41.46,4.95Z"/><path class="b" d="M318.43,476.33c35.64-27.01,72.25-63.78,106.6-109.28,22.24-22.7,47.2-53.58,69.68-85.56l59-91.09-.03-.12c10.27-14.96,22.78-32.42,36.72-50.29,55.86-71.63,104.73-111.82,149.39-122.84,41.17-10.16,82.55-6.52,119.32,7.88-11.17,6.94-22.68,14.72-34.39,23.67-35.63,27.02-73.01,66.61-107.36,112.09-22.24,22.7-45.82,51.93-68.31,83.9l-59.6,89.95.03.11c-10.27,14.96-22.77,32.43-36.72,50.31-55.86,71.63-104.73,111.81-149.39,122.83-41.17,10.16-82.55,6.52-119.32-7.88,11.17-6.93,22.69-14.71,34.39-23.67Z"/><path class="c" d="M10.04,561.73c0-19.52,17.35-30.85,52.05-33.97v-5.02c0-5.58-3.29-8.37-9.87-8.37s-16.68,3.07-29.62,9.2l-10.54-22.09c14.84-7.59,28.78-11.38,41.84-11.38,26.22,0,39.33,11.27,39.33,33.81v34.31c0,3.68,2.06,5.52,6.19,5.52v20.58c-10.15,0-17.6-.78-22.34-2.34-4.74-1.56-8.68-4.69-11.8-9.37-4.02,4.69-8.23,8.09-12.64,10.21-4.41,2.12-9.73,3.18-15.98,3.18-7.81,0-14.2-2.23-19.16-6.69-4.97-4.46-7.45-10.32-7.45-17.57ZM41.17,557.04c0,2.12.75,3.91,2.26,5.36,1.51,1.45,3.49,2.18,5.94,2.18,5.13,0,9.37-2.06,12.72-6.19v-14.89c-13.95,1-20.92,5.52-20.92,13.56Z"/><path class="c" d="M103.09,482.07v-24.27h31.63v24.27h-31.63ZM103.09,583.82v-89.7h31.63v89.7h-31.63Z"/><path class="c" d="M140.07,525.08c0-17.29,5.86-31.71,17.57-43.26,11.71-11.55,26.61-17.32,44.68-17.32,16.62,0,31.57,5.41,44.85,16.23l-17.74,21.59c-8.59-7.14-17.4-10.71-26.44-10.71s-16.65,3.04-22.17,9.12c-5.52,6.08-8.28,14.2-8.28,24.35s2.7,18.6,8.12,24.68c5.41,6.08,12.86,9.12,22.34,9.12,10.04,0,18.91-3.74,26.61-11.21l18.74,19.75c-13.39,12.38-29.12,18.58-47.19,18.58s-32.63-5.77-44.01-17.32c-11.38-11.55-17.07-26.08-17.07-43.59Z"/><path class="c" d="M244.5,537.3c0-13.94,4.46-25.3,13.39-34.06,8.92-8.76,20.19-13.14,33.81-13.14s24.71,4.38,33.64,13.14c8.92,8.76,13.39,20.11,13.39,34.06,0,14.95-4.33,26.81-12.97,35.56-8.65,8.76-20,13.14-34.06,13.14s-25.72-4.38-34.31-13.14c-8.59-8.76-12.89-20.61-12.89-35.56ZM276.13,537.46c0,8.03,1.31,14.34,3.93,18.91,2.62,4.58,6.5,6.86,11.63,6.86s8.84-2.29,11.46-6.86c2.62-4.57,3.93-10.88,3.93-18.91,0-7.47-1.37-13.44-4.1-17.91-2.73-4.46-6.5-6.69-11.3-6.69s-8.59,2.23-11.38,6.69c-2.79,4.46-4.18,10.43-4.18,17.91Z"/><path class="c" d="M343.4,583.82v-91.54h29.96l1.34,9.87c8.03-8.03,16.85-12.05,26.44-12.05s17.32,2.82,21.84,8.45c4.52,5.64,6.78,13.97,6.78,25.02v60.25h-31.46v-61.08c0-6.69-2.96-10.04-8.87-10.04-5.36,0-10.21,2.79-14.56,8.37v62.76h-31.46Z"/><path class="c" d="M437.28,583.82v-91.54h29.96l1.34,9.87c8.03-8.03,16.85-12.05,26.44-12.05s17.32,2.82,21.84,8.45c4.52,5.64,6.78,13.97,6.78,25.02v60.25h-31.46v-61.08c0-6.69-2.96-10.04-8.87-10.04-5.36,0-10.21,2.79-14.56,8.37v62.76h-31.46Z"/><path class="c" d="M527.82,537.8c0-14.5,4.54-26.08,13.64-34.73,9.09-8.64,20.22-12.97,33.39-12.97s23.65,3.77,31.46,11.3c7.81,7.53,11.71,17.66,11.71,30.37,0,4.8-.39,9.26-1.17,13.39h-57.07c1.56,10.94,7.53,16.4,17.91,16.4,8.25,0,16.46-2.4,24.6-7.2l12.72,18.91c-11.49,8.48-24.94,12.72-40.33,12.72-13.5,0-24.68-4.32-33.55-12.97-8.87-8.65-13.3-20.39-13.3-35.23ZM575.85,511.86c-3.91,0-7.25,1.42-10.04,4.27-2.79,2.85-4.69,7.11-5.69,12.8h28.62c0-5.13-1.06-9.26-3.18-12.38-2.12-3.12-5.36-4.69-9.71-4.69Z"/><path class="c" d="M619.03,537.8c0-14.62,4.54-26.22,13.64-34.81,9.09-8.59,20.67-12.89,34.73-12.89,12.49,0,23.65,3.96,33.47,11.88l-15.4,19.58c-5.25-4.35-10.88-6.53-16.9-6.53-4.91,0-9.09,1.95-12.55,5.86-3.46,3.91-5.19,9.54-5.19,16.9s1.73,13.22,5.19,17.24c3.46,4.02,7.64,6.02,12.55,6.02,5.58,0,10.99-2.06,16.23-6.19l16.57,17.41c-9.93,9.15-21.25,13.72-33.97,13.72-13.95,0-25.5-4.35-34.64-13.05-9.15-8.7-13.72-20.42-13.72-35.14Z"/><path class="c" d="M710.23,553.2v-39.83h-13.22v-21.09h13.22v-20.75h31.46v20.75h24.43v21.09h-24.43v39.16c0,5.69,2.34,8.54,7.03,8.54,3.79,0,7.47-1.28,11.05-3.85l11.04,18.07c-8.93,7.14-19.08,10.71-30.46,10.71-10.38,0-17.99-2.62-22.84-7.87-4.85-5.24-7.28-13.55-7.28-24.93Z"/><path class="c" d="M764.96,537.8c0-14.5,4.54-26.08,13.64-34.73,9.09-8.64,20.22-12.97,33.39-12.97s23.65,3.77,31.46,11.3c7.81,7.53,11.71,17.66,11.71,30.37,0,4.8-.39,9.26-1.17,13.39h-57.07c1.56,10.94,7.53,16.4,17.91,16.4,8.25,0,16.46-2.4,24.6-7.2l12.72,18.91c-11.49,8.48-24.94,12.72-40.33,12.72-13.5,0-24.68-4.32-33.55-12.97-8.87-8.65-13.3-20.39-13.3-35.23ZM812.99,511.86c-3.91,0-7.25,1.42-10.04,4.27-2.79,2.85-4.69,7.11-5.69,12.8h28.62c0-5.13-1.06-9.26-3.18-12.38-2.12-3.12-5.36-4.69-9.71-4.69Z"/><path class="c" d="M889.8,585.66c-9.82,0-17.82-4.18-24.01-12.55-6.19-8.37-9.29-20.3-9.29-35.81s3.07-27.08,9.2-35.06c6.13-7.98,14.5-11.97,25.1-11.97,10.04,0,18.18,3.85,24.43,11.55v-44.35h31.46v126.35h-27.61l-1.84-10.21c-7.81,8.03-16.96,12.05-27.45,12.05ZM901.18,562.57c5.46,0,10.15-2.12,14.06-6.36v-35.98c-4.13-4.46-8.81-6.69-14.06-6.69-9.04,0-13.56,7.92-13.56,23.76,0,7.59,1.14,13.7,3.43,18.33,2.29,4.63,5.66,6.95,10.12,6.95Z"/><path class="c" d="M962.77,585.07v-20.14h-8.28v-6.46h23.86v6.46h-8.28v20.14h-7.29Z"/><path class="c" d="M981.31,585.07v-26.6h7.33l7.03,9.88,7.07-9.88h7.22v26.6h-6.88v-16.49l-7.41,10.11-7.41-10.11v16.49h-6.95Z"/></svg>